HIERARCHY
ROOT root
{
	OFFSET 0.000000 0.000000 0.000000
	CHANNELS 6 Xposition Yposition Zposition Zrotation Yrotation Xrotation
	JOINT lhip
	{
		OFFSET 0.058581 -0.082280 -0.017664
		CHANNELS 3 Zrotation Yrotation Xrotation
		JOINT lknee
		{
			OFFSET 0.043451 -0.386469 0.008037
			CHANNELS 3 Zrotation Yrotation Xrotation
			JOINT lankle
			{
				OFFSET -0.014790 -0.426874 -0.037428
				CHANNELS 3 Zrotation Yrotation Xrotation
				JOINT ltoe
				{
					OFFSET 0.041054 -0.060286 0.122042
					CHANNELS 3 Zrotation Yrotation Xrotation
					End Site
					{
						OFFSET 0.000000 0.000000 0.000000
					}
				}
			}
		}
	}
	JOINT rhip
	{
		OFFSET -0.060310 -0.090513 -0.013543
		CHANNELS 3 Zrotation Yrotation Xrotation
		JOINT rknee
		{
			OFFSET -0.043257 -0.383688 -0.004843
			CHANNELS 3 Zrotation Yrotation Xrotation
			JOINT rankle
			{
				OFFSET 0.019056 -0.420046 -0.034562
				CHANNELS 3 Zrotation Yrotation Xrotation
				JOINT rtoe
				{
					OFFSET -0.034840 -0.062106 0.130323
					CHANNELS 3 Zrotation Yrotation Xrotation
					End Site
					{
						OFFSET 0.000000 0.000000 0.000000
					}
				}
			}
		}
	}
	JOINT lowerback
	{
		OFFSET 0.004439 0.124404 -0.038385
		CHANNELS 3 Zrotation Yrotation Xrotation
		JOINT upperback
		{
			OFFSET 0.004488 0.137956 0.026820
			CHANNELS 3 Zrotation Yrotation Xrotation
			JOINT chest
			{
				OFFSET -0.002265 0.056032 0.002855
				CHANNELS 3 Zrotation Yrotation Xrotation
				JOINT lowerneck
				{
					OFFSET -0.013390 0.211636 -0.033468
					CHANNELS 3 Zrotation Yrotation Xrotation
					JOINT upperneck
					{
						OFFSET 0.010113 0.088937 0.050410
						CHANNELS 3 Zrotation Yrotation Xrotation
						End Site
						{
							OFFSET 0.000000 0.000000 0.000000
						}
					}
				}
				JOINT lclavicle
				{
					OFFSET 0.071702 0.114000 -0.018898
					CHANNELS 3 Zrotation Yrotation Xrotation
					JOINT lshoulder
					{
						OFFSET 0.122921 0.045205 -0.019046
						CHANNELS 3 Zrotation Yrotation Xrotation
						JOINT lelbow
						{
							OFFSET 0.255332 -0.015649 -0.022946
							CHANNELS 3 Zrotation Yrotation Xrotation
							JOINT lwrist
							{
								OFFSET 0.265709 0.012698 -0.007375
								CHANNELS 3 Zrotation Yrotation Xrotation
								End Site
								{
									OFFSET 0.000000 0.000000 0.000000
								}
							}
						}
					}
				}
				JOINT rclavicle
				{
					OFFSET -0.082954 0.112472 -0.023707
					CHANNELS 3 Zrotation Yrotation Xrotation
					JOINT rshoulder
					{
						OFFSET -0.113228 0.046853 -0.008472
						CHANNELS 3 Zrotation Yrotation Xrotation
						JOINT relbow
						{
							OFFSET -0.260127 -0.014369 -0.031269
							CHANNELS 3 Zrotation Yrotation Xrotation
							JOINT rwrist
							{
								OFFSET -0.269108 0.006794 -0.006027
								CHANNELS 3 Zrotation Yrotation Xrotation
								End Site
								{
									OFFSET 0.000000 0.000000 0.000000
								}
							}
						}
					}
				}
			}
		}
	}
}
MOTION
Frames: 11
Frame Time: 0.033333
-0.109484 0.273970 0.998022 91.895129 0.237460 87.419413 -0.644331 0.362212 3.645921 -3.507937 -11.767675 5.865644 3.688254 5.677067 -11.399648 0.000000 -0.000000 0.000000 1.240027 -2.124917 -0.860821 -0.425024 -0.577003 12.843661 3.104350 -8.454985 -10.193989 0.000000 -0.000000 0.000000 -1.298367 0.937255 10.654838 0.928957 0.194471 -6.930373 1.073217 -1.686366 0.833678 3.011079 1.649816 -13.962547 -1.426255 -5.671045 8.243009 -28.335385 10.809507 -2.297168 -56.561413 -3.278927 9.054067 4.261845 -27.043317 12.386416 -2.707999 -3.637814 -5.011022 30.027682 -5.205827 -4.571094 54.100646 2.493538 14.796712 -15.035634 31.152617 -6.257386 3.851613 5.728215 -7.003535 
-0.108891 0.275022 0.998009 92.059258 0.248245 87.462740 -0.643579 0.367564 3.776306 -3.512238 -11.724896 5.580672 3.583250 5.492765 -11.367576 0.000000 -0.000000 0.000000 1.147357 -1.901289 -0.741264 -0.330148 -0.708535 12.701966 3.240134 -8.682573 -10.255413 0.000000 -0.000000 0.000000 -1.331153 0.798872 10.322336 1.099267 -0.079642 -6.667509 1.167300 -1.925721 1.020253 2.871868 1.590628 -13.876299 -1.554047 -5.473852 7.988136 -28.448114 10.842681 -1.990384 -56.651084 -3.105557 8.846180 4.392309 -27.248618 12.116108 -2.470290 -3.597993 -5.064572 30.097758 -5.976275 -4.604116 53.877804 2.154674 14.738709 -16.455981 34.275995 -7.002052 3.493805 6.226137 -7.000008 
-0.107916 0.275846 0.997974 91.855824 0.278822 87.535136 -0.647980 0.464783 3.937053 -3.493819 -11.639649 5.283326 3.615879 5.508195 -11.216438 0.000000 -0.000000 0.000000 1.165238 -1.738493 -0.804530 -0.382929 -0.628421 12.759589 3.264856 -8.725935 -10.342032 0.000000 -0.000000 0.000000 -1.374216 0.708028 10.249298 1.186646 -0.182230 -6.716806 1.271057 -2.067157 1.087292 2.819452 1.567947 -13.875417 -1.570145 -5.431300 7.785239 -28.490299 11.251075 -2.107567 -56.610089 -2.667999 8.598541 4.123288 -27.503672 12.357976 -2.168439 -3.347605 -5.000458 30.041511 -6.624857 -4.739154 53.780017 1.539503 14.852350 -18.002913 37.206504 -7.504317 2.811277 6.769835 -6.888083 
-0.107227 0.276929 0.997992 91.731697 0.325386 87.523556 -0.624531 0.822856 4.006116 -3.534468 -11.680044 5.269045 3.538716 5.357010 -11.309267 0.000000 -0.000000 0.000000 1.156571 -1.786576 -0.777307 -0.425078 -0.499265 12.774548 3.258837 -8.671839 -10.366370 0.000000 -0.000000 0.000000 -1.296982 0.514688 10.123146 1.329448 -0.381313 -6.644215 1.286791 -2.228549 1.324172 2.808860 1.498073 -14.145289 -1.734912 -5.425129 7.796165 -28.476667 11.331213 -2.064756 -56.557642 -2.316402 8.354379 3.780681 -27.559475 12.642881 -1.670373 -3.381997 -4.631590 30.090760 -7.599707 -5.265235 53.314628 1.401175 14.917101 -19.310333 40.901582 -7.902919 2.241508 7.607585 -6.741526 
-0.107253 0.277727 0.998248 91.697337 0.352886 87.591450 -0.601375 0.804228 3.855109 -3.627394 -11.486778 5.440861 3.545833 5.238427 -11.420527 0.000000 -0.000000 0.000000 1.118672 -1.811581 -0.910546 -0.379755 -0.413268 12.837622 3.342472 -8.709274 -10.346193 0.000000 -0.000000 0.000000 -1.208685 0.513273 10.277107 1.411181 -0.531120 -6.768749 1.294084 -2.369673 1.288417 2.755285 1.308161 -14.319574 -1.783680 -5.476999 7.788429 -28.465815 11.404400 -2.204867 -56.508606 -1.883310 8.253533 3.417309 -27.669346 13.108688 -1.599834 -3.397150 -4.493135 29.967188 -8.269591 -5.689545 53.100394 1.058169 14.997941 -20.214781 43.209666 -7.948348 2.029259 8.442193 -6.584930 
-0.106611 0.278590 0.998157 91.325130 0.333760 87.632678 -0.663383 0.949204 4.064099 -3.592682 -11.347317 5.042706 3.677242 5.245388 -11.195526 0.000000 -0.000000 0.000000 1.001242 -1.613142 -1.016875 -0.315091 -0.364713 12.937232 3.322716 -8.594633 -10.367649 0.000000 -0.000000 0.000000 -1.284157 0.485454 10.127818 1.507209 -0.665688 -6.737380 1.332469 -2.622515 1.175116 2.918605 1.423389 -13.593857 -1.826527 -5.489972 7.547450 -28.310409 11.385777 -1.789984 -56.512516 -1.217625 8.157501 3.269235 -28.132986 13.214695 -1.645462 -3.397647 -4.230399 29.763347 -8.308064 -5.035345 52.938039 1.266609 15.008904 -22.316551 45.799888 -9.380334 1.561278 8.299150 -6.435190 
-0.106793 0.279377 0.997956 91.115487 0.442353 87.669709 -0.494343 0.206351 4.106755 -3.762218 -10.251239 5.038075 3.214508 5.055397 -11.515004 0.000000 -0.000000 0.000000 1.146761 -0.754056 -1.023228 -0.518633 -1.181179 12.956946 3.552764 -8.489820 -10.245601 0.000000 -0.000000 0.000000 -1.540690 0.946548 10.038443 2.683238 -1.034644 -5.582460 0.706764 -2.014589 0.656697 3.264169 1.826524 -14.897976 -2.291836 -6.863396 8.056391 -27.942575 11.581363 -1.323934 -57.022947 -2.372152 8.905386 3.220449 -27.242013 14.633485 -3.202581 -5.788674 -6.028545 30.737274 -9.358774 -5.795537 52.359320 0.921053 14.605977 -26.856704 49.335018 -9.732680 3.570307 9.825912 -5.744553 
-0.105907 0.280034 0.997645 90.831260 0.470964 87.537508 -0.516057 0.039601 4.435558 -3.720827 -9.874377 4.849137 3.356038 5.059943 -11.485703 0.000000 -0.000000 0.000000 1.143767 -0.702860 -0.823757 -0.518560 -0.988128 12.911594 3.470094 -8.457118 -10.154603 0.000000 -0.000000 0.000000 -1.653706 1.107470 9.802394 2.964023 -1.294277 -5.255374 0.674758 -2.180807 0.798237 3.551948 1.641033 -14.750860 -2.521168 -7.511950 8.144468 -27.743507 11.603019 -1.176953 -57.254657 -2.007081 8.989310 3.066224 -27.689814 15.149365 -3.711428 -5.845196 -6.053677 30.497177 -9.406527 -5.505493 52.423010 1.211150 14.869727 -30.795085 52.053922 -11.833683 3.515021 9.850439 -4.929727 
-0.105549 0.280758 0.997722 90.592678 0.492495 87.667430 -0.554024 0.157388 4.399989 -3.711829 -9.839961 4.729114 3.561742 5.067849 -11.507954 0.000000 -0.000000 0.000000 1.126224 -0.561839 -1.038004 -0.472102 -0.816874 13.003196 3.520193 -8.535651 -10.144256 0.000000 -0.000000 0.000000 -1.647429 1.156044 9.844127 3.145477 -1.382219 -5.371825 0.665255 -2.163789 0.825171 3.714577 1.348319 -15.170473 -2.699800 -8.135115 8.274365 -27.900302 11.693209 -1.163287 -56.710543 -1.534452 8.981825 1.612663 -28.345826 16.635778 -3.346743 -5.727454 -5.523605 30.337197 -9.652720 -5.685410 52.029362 1.140798 14.847609 -34.494350 54.966488 -14.074432 2.123891 10.479370 -4.021105 
-0.104951 0.281468 0.997189 90.212673 0.531450 87.694923 -0.534389 0.285683 4.509667 -3.680105 -9.274318 4.592938 3.588938 4.708995 -11.474874 0.000000 -0.000000 0.000000 1.081669 -0.368639 -1.053664 -0.442642 -0.747467 13.021048 3.421212 -8.366648 -10.096173 0.000000 -0.000000 0.000000 -1.765639 1.158440 8.971886 3.403833 -1.630307 -4.546189 0.660137 -2.078152 0.971579 3.937154 0.936788 -14.433419 -2.678639 -8.625680 7.788486 -27.842088 11.229849 -0.495831 -56.777448 -1.367154 9.136020 1.307409 -29.095103 16.937170 -2.907773 -6.577757 -4.627729 30.171773 -9.140678 -5.086746 51.246673 1.936067 14.614821 -40.955279 58.219078 -19.319697 1.352527 12.080506 -1.822972 
-0.103759 0.281963 0.997264 89.929878 0.577916 87.583793 -0.503452 0.564793 4.787493 -3.664672 -9.182547 4.475121 3.586863 4.587790 -11.541127 0.000000 -0.000000 0.000000 1.112127 -0.328332 -0.842181 -0.453379 -0.557607 12.896808 3.461921 -8.361190 -10.199044 0.000000 -0.000000 0.000000 -1.761916 1.157321 9.063123 3.543244 -1.726067 -4.616341 0.614936 -2.017853 0.975567 4.178141 0.779824 -14.505862 -2.802782 -8.918238 8.412086 -27.739171 11.253283 -0.484819 -56.664299 -1.047922 9.136189 0.288510 -29.152975 18.012177 -2.266752 -7.169346 -4.287812 29.983896 -9.306648 -5.538077 50.482876 2.348585 14.558356 -45.840559 60.853599 -22.682912 0.598399 12.754256 -0.244988 
